<mxfile host="app.diagrams.net" modified="2022-12-10T19:53:24.970Z" agent="5.0 (Windows NT 10.0; Win64; x64) AppleWebKit/537.36 (KHTML, like Gecko) Chrome/108.0.0.0 Safari/537.36" etag="S-ECKjKjFDXuRP84resn" version="20.6.0" type="github">
  <diagram id="C5RBs43oDa-KdzZeNtuy" name="Page-1">
    <mxGraphModel dx="1038" dy="539" grid="1" gridSize="10" guides="1" tooltips="1" connect="1" arrows="1" fold="1" page="1" pageScale="1" pageWidth="827" pageHeight="1169" math="0" shadow="0">
      <root>
        <mxCell id="WIyWlLk6GJQsqaUBKTNV-0" />
        <mxCell id="WIyWlLk6GJQsqaUBKTNV-1" parent="WIyWlLk6GJQsqaUBKTNV-0" />
        <mxCell id="YjPTBmPp27JOK4eu0ybq-1" value="Запрос на контент" style="rounded=1;whiteSpace=wrap;html=1;" vertex="1" parent="WIyWlLk6GJQsqaUBKTNV-1">
          <mxGeometry x="540" y="80" width="120" height="40" as="geometry" />
        </mxCell>
        <mxCell id="YjPTBmPp27JOK4eu0ybq-4" value="Запросить из bucket" style="rounded=1;whiteSpace=wrap;html=1;" vertex="1" parent="WIyWlLk6GJQsqaUBKTNV-1">
          <mxGeometry x="540" y="305" width="120" height="50" as="geometry" />
        </mxCell>
        <mxCell id="YjPTBmPp27JOK4eu0ybq-5" value="Файл существует" style="rhombus;whiteSpace=wrap;html=1;" vertex="1" parent="WIyWlLk6GJQsqaUBKTNV-1">
          <mxGeometry x="530" y="420" width="130" height="60" as="geometry" />
        </mxCell>
        <mxCell id="YjPTBmPp27JOK4eu0ybq-6" value="Просуммировать отданные байты и записать в БД" style="rounded=1;whiteSpace=wrap;html=1;" vertex="1" parent="WIyWlLk6GJQsqaUBKTNV-1">
          <mxGeometry x="530" y="525" width="120" height="60" as="geometry" />
        </mxCell>
        <mxCell id="YjPTBmPp27JOK4eu0ybq-7" value="Авторизован?" style="rhombus;whiteSpace=wrap;html=1;" vertex="1" parent="WIyWlLk6GJQsqaUBKTNV-1">
          <mxGeometry x="530" y="170" width="140" height="80" as="geometry" />
        </mxCell>
        <mxCell id="YjPTBmPp27JOK4eu0ybq-8" value="" style="rounded=1;whiteSpace=wrap;html=1;" vertex="1" parent="WIyWlLk6GJQsqaUBKTNV-1">
          <mxGeometry x="100" y="190" width="120" height="60" as="geometry" />
        </mxCell>
        <mxCell id="YjPTBmPp27JOK4eu0ybq-10" value="&lt;h1&gt;Создание онлайн кинотеатра 1 клик&lt;/h1&gt;&lt;p&gt;Составляющие:&lt;br&gt;- Краулер + парсер&lt;br&gt;- Библиотека контента&lt;br&gt;- Видео плеер (+ бесплатная версия)&lt;/p&gt;" style="text;html=1;strokeColor=none;fillColor=none;spacing=5;spacingTop=-20;whiteSpace=wrap;overflow=hidden;rounded=0;" vertex="1" parent="WIyWlLk6GJQsqaUBKTNV-1">
          <mxGeometry x="20" y="10" width="480" height="120" as="geometry" />
        </mxCell>
      </root>
    </mxGraphModel>
  </diagram>
</mxfile>
